<svg width="16" height="16" viewBox="0 0 16 16" fill="none" xmlns="http://www.w3.org/2000/svg">
<path fill-rule="evenodd" clip-rule="evenodd" d="M7.99984 1.99999C4.68613 1.99999 1.99984 4.68628 1.99984 7.99999C1.99984 11.3137 4.68613 14 7.99984 14C11.3135 14 13.9998 11.3137 13.9998 7.99999C13.9998 4.68628 11.3135 1.99999 7.99984 1.99999ZM0.666504 7.99999C0.666504 3.9499 3.94975 0.666656 7.99984 0.666656C12.0499 0.666656 15.3332 3.9499 15.3332 7.99999C15.3332 12.0501 12.0499 15.3333 7.99984 15.3333C3.94975 15.3333 0.666504 12.0501 0.666504 7.99999ZM7.99984 4.66666C8.36803 4.66666 8.6665 4.96513 8.6665 5.33332V7.99999C8.6665 8.36818 8.36803 8.66666 7.99984 8.66666C7.63165 8.66666 7.33317 8.36818 7.33317 7.99999V5.33332C7.33317 4.96513 7.63165 4.66666 7.99984 4.66666ZM7.33317 10.6667C7.33317 10.2985 7.63165 9.99999 7.99984 9.99999H8.0065C8.37469 9.99999 8.67317 10.2985 8.67317 10.6667C8.67317 11.0348 8.37469 11.3333 8.0065 11.3333H7.99984C7.63165 11.3333 7.33317 11.0348 7.33317 10.6667Z" fill="#CC3333"/>
</svg>
