<svg width="24" height="29" viewBox="0 0 24 29" fill="none" xmlns="http://www.w3.org/2000/svg">
<path d="M17.8571 9.8V7.4H8.33333V9.8H17.8571ZM7.14286 24.2C6.51139 24.2 5.90578 24.4529 5.45927 24.9029C5.01275 25.353 4.7619 25.9635 4.7619 26.6C4.7619 27.2365 5.01275 27.847 5.45927 28.2971C5.90578 28.7471 6.51139 29 7.14286 29C7.77432 29 8.37993 28.7471 8.82644 28.2971C9.27296 27.847 9.52381 27.2365 9.52381 26.6C9.52381 25.9635 9.27296 25.353 8.82644 24.9029C8.37993 24.4529 7.77432 24.2 7.14286 24.2ZM19.0476 24.2C18.4162 24.2 17.8105 24.4529 17.364 24.9029C16.9175 25.353 16.6667 25.9635 16.6667 26.6C16.6667 27.2365 16.9175 27.847 17.364 28.2971C17.8105 28.7471 18.4162 29 19.0476 29C19.6791 29 20.2847 28.7471 20.7312 28.2971C21.1777 27.847 21.4286 27.2365 21.4286 26.6C21.4286 25.9635 21.1777 25.353 20.7312 24.9029C20.2847 24.4529 19.6791 24.2 19.0476 24.2ZM7.34524 20.3L7.38095 20.156L8.45238 18.2H17.3214C18.2143 18.2 19 17.708 19.4048 16.964L24 8.552L21.9286 7.4H21.9167L20.6071 9.8L17.3214 15.8H8.96428L8.80952 15.476L6.14286 9.8L5.0119 7.4L3.89286 5H0V7.4H2.38095L6.66667 16.508L5.05952 19.448C4.86905 19.784 4.7619 20.18 4.7619 20.6C4.7619 21.2365 5.01275 21.847 5.45927 22.2971C5.90578 22.7471 6.51139 23 7.14286 23H21.4286V20.6H7.64286C7.4881 20.6 7.34524 20.468 7.34524 20.3Z" fill="#222222"/>
</svg>
