<svg width="40" height="34" viewBox="0 0 40 34" fill="none" xmlns="http://www.w3.org/2000/svg">
<path d="M38 8H10.924L7.82 1.172C7.496 0.458 6.784 0 6 0H0V4H4.712L14.18 24.828C14.504 25.542 15.216 26 16 26H32C32.8 26 33.524 25.524 33.838 24.788L39.838 10.788C40.104 10.17 40.04 9.462 39.67 8.9C39.298 8.338 38.672 8 38 8ZM30.682 22H17.288L12.742 12H34.966L30.682 22Z" fill="#222222"/>
<path d="M17 34C18.6569 34 20 32.6569 20 31C20 29.3431 18.6569 28 17 28C15.3431 28 14 29.3431 14 31C14 32.6569 15.3431 34 17 34Z" fill="#222222"/>
<path d="M31 34C32.6569 34 34 32.6569 34 31C34 29.3431 32.6569 28 31 28C29.3431 28 28 29.3431 28 31C28 32.6569 29.3431 34 31 34Z" fill="#222222"/>
</svg>
