<svg width="40" height="36" viewBox="0 0 40 36" fill="none" xmlns="http://www.w3.org/2000/svg">
<path d="M37.544 12.312L34.808 4.102C33.99 1.648 31.704 0 29.118 0H10.882C8.296 0 6.01 1.648 5.192 4.102L2.456 12.312C1.016 12.918 0 14.342 0 16V26C0 27.506 0.846 28.804 2.078 29.486C2.052 29.618 2 29.738 2 29.876V34C2 35.106 2.894 36 4 36H6C7.106 36 8 35.106 8 34V30H32V34C32 35.106 32.894 36 34 36H36C37.106 36 38 35.106 38 34V29.876C38 29.738 37.948 29.616 37.922 29.486C39.154 28.804 40 27.506 40 26V16C40 14.342 38.984 12.918 37.544 12.312ZM4 26V16H36L36.004 26H4ZM10.882 4H29.116C29.978 4 30.742 4.548 31.014 5.368L33.226 12H6.774L8.984 5.368C9.258 4.548 10.022 4 10.882 4Z" fill="#222222"/>
<path d="M9 24C10.6569 24 12 22.6569 12 21C12 19.3431 10.6569 18 9 18C7.34315 18 6 19.3431 6 21C6 22.6569 7.34315 24 9 24Z" fill="#222222"/>
<path d="M31 24C32.6569 24 34 22.6569 34 21C34 19.3431 32.6569 18 31 18C29.3431 18 28 19.3431 28 21C28 22.6569 29.3431 24 31 24Z" fill="#222222"/>
</svg>
