<svg width="20" height="17" viewBox="0 0 20 17" fill="none" xmlns="http://www.w3.org/2000/svg">
<path d="M19 4H5.462L3.91 0.586C3.748 0.229 3.392 0 3 0H0V2H2.356L7.09 12.414C7.252 12.771 7.608 13 8 13H16C16.4 13 16.762 12.762 16.919 12.394L19.919 5.394C20.052 5.085 20.02 4.731 19.835 4.45C19.649 4.169 19.336 4 19 4ZM15.341 11H8.644L6.371 6H17.483L15.341 11Z" fill="#1C69D4"/>
<path d="M8.5 17C9.32843 17 10 16.3284 10 15.5C10 14.6716 9.32843 14 8.5 14C7.67157 14 7 14.6716 7 15.5C7 16.3284 7.67157 17 8.5 17Z" fill="#1C69D4"/>
<path d="M15.5 17C16.3284 17 17 16.3284 17 15.5C17 14.6716 16.3284 14 15.5 14C14.6716 14 14 14.6716 14 15.5C14 16.3284 14.6716 17 15.5 17Z" fill="#1C69D4"/>
</svg>
