<svg width="38" height="40" viewBox="0 0 38 40" fill="none" xmlns="http://www.w3.org/2000/svg">
<path d="M18.8462 28C23.2582 28 26.8462 24.412 26.8462 20C26.8462 15.588 23.2582 12 18.8462 12C14.4342 12 10.8462 15.588 10.8462 20C10.8462 24.412 14.4342 28 18.8462 28ZM18.8462 16C21.0142 16 22.8462 17.832 22.8462 20C22.8462 22.168 21.0142 24 18.8462 24C16.6782 24 14.8462 22.168 14.8462 20C14.8462 17.832 16.6782 16 18.8462 16Z" fill="#222222"/>
<path d="M0.536155 28.272L2.53615 31.732C3.59816 33.566 6.15415 34.254 7.99615 33.192L9.05416 32.58C10.2182 33.494 11.4962 34.244 12.8462 34.804V36C12.8462 38.206 14.6402 40 16.8462 40H20.8462C23.0522 40 24.8462 38.206 24.8462 36V34.804C26.1962 34.244 27.4742 33.494 28.6382 32.582L29.6962 33.194C31.5422 34.254 34.0922 33.57 35.1582 31.732L37.1562 28.274C38.2602 26.364 37.6042 23.912 35.6942 22.81L34.6842 22.226C34.7922 21.484 34.8462 20.742 34.8462 20C34.8462 19.258 34.7922 18.514 34.6842 17.778L35.6942 17.194C37.6042 16.09 38.2602 13.64 37.1562 11.73L35.1582 8.272C34.0962 6.432 31.5422 5.742 29.6962 6.808L28.6382 7.42C27.4742 6.506 26.1962 5.756 24.8462 5.196V4C24.8462 1.794 23.0522 0 20.8462 0H16.8462C14.6402 0 12.8462 1.794 12.8462 4V5.196C11.4962 5.756 10.2182 6.506 9.05416 7.418L7.99615 6.806C6.14815 5.744 3.59616 6.432 2.53416 8.27L0.536155 11.728C-0.567845 13.638 0.088155 16.09 1.99815 17.192L3.00815 17.776C2.90015 18.514 2.84615 19.258 2.84615 20C2.84615 20.742 2.90015 21.484 3.00815 22.222L1.99815 22.806C0.088155 23.91 -0.567845 26.362 0.536155 28.272ZM7.18816 22.756C6.96216 21.85 6.84616 20.922 6.84616 20C6.84616 19.076 6.96216 18.148 7.18616 17.244C7.40216 16.378 7.02015 15.474 6.24615 15.028L4.00016 13.728L5.99615 10.27L8.28615 11.594C9.05415 12.036 10.0202 11.924 10.6622 11.31C12.0282 10.016 13.6762 9.048 15.4302 8.512C16.2722 8.256 16.8462 7.478 16.8462 6.6V4H20.8462V6.6C20.8462 7.478 21.4202 8.256 22.2622 8.512C24.0162 9.05 25.6642 10.016 27.0302 11.31C27.6722 11.924 28.6422 12.034 29.4062 11.594L31.6942 10.272L33.6942 13.73L31.4462 15.028C30.6722 15.476 30.2902 16.38 30.5062 17.244C30.7302 18.148 30.8462 19.076 30.8462 20C30.8462 20.922 30.7302 21.85 30.5042 22.756C30.2902 23.622 30.6722 24.526 31.4462 24.972L33.6922 26.27L31.6962 29.728L29.4062 28.406C28.6402 27.964 27.6722 28.074 27.0302 28.69C25.6642 29.984 24.0162 30.952 22.2622 31.488C21.4202 31.744 20.8462 32.522 20.8462 33.4L20.8502 36H16.8462V33.4C16.8462 32.522 16.2722 31.744 15.4302 31.488C13.6762 30.95 12.0282 29.984 10.6622 28.69C10.2822 28.326 9.78615 28.14 9.28615 28.14C8.94215 28.14 8.59816 28.228 8.28615 28.408L5.99816 29.732L3.99816 26.274L6.24615 24.972C7.02015 24.526 7.40216 23.622 7.18816 22.756Z" fill="#222222"/>
</svg>
