<svg width="48" height="48" viewBox="0 0 48 48" fill="none" xmlns="http://www.w3.org/2000/svg">
<path d="M41.7681 36C41.7861 36.799 41.6451 37.5936 41.3535 38.3371C41.0619 39.0806 40.6255 39.758 40.0699 40.3295C39.5143 40.9011 38.8508 41.3553 38.1183 41.6654C37.3858 41.9756 36.599 42.1354 35.8042 42.1356C35.0094 42.1358 34.2226 41.9764 33.4899 41.6666C32.7572 41.3568 32.0935 40.9029 31.5377 40.3317C30.9818 39.7604 30.5451 39.0832 30.2531 38.3399C29.9611 37.5965 29.8198 36.802 29.8373 36.003C29.8718 34.4353 30.5152 32.9435 31.6299 31.8469C32.7445 30.7503 34.2418 30.136 35.8013 30.1356C37.3607 30.1353 38.8583 30.7487 39.9735 31.8448C41.0887 32.9408 41.7328 34.4323 41.7681 36Z" fill="#222222"/>
<path d="M34.9062 48C32.5194 48 30.1327 47.4 28.0443 45.9L9.54699 36C8.05527 34.8 6.8619 34.2 5.66853 33C2.0884 29.4 0 24.3 0 19.2C0 14.1 2.0884 9.3 5.66853 5.7C9.24865 2.1 14.0221 0 19.094 0C24.1658 0 28.9393 2.1 32.8178 5.7C34.0112 6.9 34.6078 7.8 35.8012 9.3L46.2432 28.5C49.2267 33.6 48.3316 39.9 44.1548 44.1C41.4697 46.8 38.4863 48 34.9062 48ZM19.094 3C14.9172 3 10.7404 4.8 7.75693 7.8C4.7735 10.8 2.98343 15 2.98343 19.2C2.98343 23.7 4.7735 27.6 7.75693 30.6C8.65196 31.5 9.54699 32.1 11.0387 33L29.8343 43.2C31.6244 44.4 33.4145 44.7 35.2045 44.7C37.8896 44.7 40.2764 43.8 42.0664 41.7C45.3482 38.4 45.9449 33.6 43.5581 29.7L33.1161 10.5C32.2211 9.3 31.6244 8.4 30.7294 7.5C27.4476 4.8 23.5691 3 19.094 3Z" fill="#222222"/>
<path d="M32.8178 21V18L28.641 16.5C28.3426 15.9 28.3426 15.6 28.0443 15L29.8343 11.1L27.7459 9L23.8675 10.8C23.2708 10.5 22.9724 10.5 22.3758 10.2L20.884 6H17.9006L16.4089 10.2C15.8122 10.5 15.5139 10.5 14.9172 10.8L11.0387 9L8.9503 11.1L10.7404 15C10.442 15.6 10.442 15.9 10.1437 16.5L5.96687 18V21L10.1437 22.5C10.442 23.1 10.442 23.4 10.7404 24L8.9503 27.9L11.0387 30L14.9172 28.2C15.5139 28.5 15.8122 28.8 16.4089 28.8L17.9006 33H20.884L22.3758 28.8C22.9724 28.5 23.2708 28.5 23.8675 28.2L27.7459 30L29.8343 27.9L28.0443 24C28.3426 23.4 28.641 23.1 28.641 22.5L32.8178 21ZM19.3923 24C17.0056 24 14.9172 21.9 14.9172 19.5C14.9172 17.1 17.0056 15 19.3923 15C21.7791 15 23.8675 17.1 23.8675 19.5C23.8675 21.9 21.7791 24 19.3923 24Z" fill="#222222"/>
</svg>
