<svg width="74" height="74" viewBox="0 0 74 74" fill="none" xmlns="http://www.w3.org/2000/svg">
<path fill-rule="evenodd" clip-rule="evenodd" d="M37 6.99998C20.4314 6.99998 6.99998 20.4314 6.99998 37C6.99998 53.5685 20.4314 67 37 67C53.5685 67 67 53.5685 67 37C67 20.4314 53.5685 6.99998 37 6.99998ZM0.333313 37C0.333313 16.7495 16.7495 0.333313 37 0.333313C57.2504 0.333313 73.6666 16.7495 73.6666 37C73.6666 57.2504 57.2504 73.6666 37 73.6666C16.7495 73.6666 0.333313 57.2504 0.333313 37Z" fill="#CC3333"/>
<path fill-rule="evenodd" clip-rule="evenodd" d="M49.357 24.643C50.6587 25.9447 50.6587 28.0553 49.357 29.357L29.357 49.357C28.0553 50.6587 25.9447 50.6587 24.643 49.357C23.3412 48.0553 23.3412 45.9447 24.643 44.643L44.643 24.643C45.9447 23.3412 48.0553 23.3412 49.357 24.643Z" fill="#CC3333"/>
<path fill-rule="evenodd" clip-rule="evenodd" d="M24.643 24.643C25.9447 23.3412 28.0553 23.3412 29.357 24.643L49.357 44.643C50.6587 45.9447 50.6587 48.0553 49.357 49.357C48.0553 50.6587 45.9447 50.6587 44.643 49.357L24.643 29.357C23.3412 28.0553 23.3412 25.9447 24.643 24.643Z" fill="#CC3333"/>
</svg>
