<svg width="18" height="18" viewBox="0 0 18 18" fill="none" xmlns="http://www.w3.org/2000/svg">
<path d="M7 0H1C0.448 0 0 0.448 0 1V7C0 7.552 0.448 8 1 8H7C7.552 8 8 7.552 8 7V1C8 0.448 7.552 0 7 0ZM6 6H2V2H6V6ZM11 8H17C17.553 8 18 7.552 18 7V1C18 0.448 17.553 0 17 0H11C10.447 0 10 0.448 10 1V7C10 7.552 10.447 8 11 8ZM12 2H16V6H12V2ZM0 17C0 17.552 0.448 18 1 18H7C7.552 18 8 17.552 8 17V11C8 10.448 7.552 10 7 10H1C0.448 10 0 10.448 0 11V17ZM2 12H6V16H2V12ZM10 17C10 17.552 10.447 18 11 18H17C17.553 18 18 17.552 18 17V11C18 10.448 17.553 10 17 10H11C10.447 10 10 10.448 10 11V17ZM12 12H16V16H12V12Z" fill="#222222"/>
</svg>
