<svg width="16" height="20" viewBox="0 0 16 20" fill="none" xmlns="http://www.w3.org/2000/svg">
<path d="M11.566 9.021C13.685 7.771 15 5.464 15 3V2H16V0H0V2H1V3C1 5.464 2.315 7.771 4.434 9.021C4.788 9.229 5 9.566 5 9.921V10.079C5 10.433 4.788 10.769 4.434 10.979C2.315 12.229 1 14.536 1 17V18H0V20H16V18H15V17C15 14.536 13.685 12.229 11.567 10.98C11.212 10.77 11 10.433 11 10.079V9.921C11 9.566 11.212 9.229 11.566 9.021ZM10.551 12.702C12.062 13.594 13 15.24 13 17V18H3V17C3 15.24 3.938 13.594 5.45 12.701C6.421 12.128 7 11.147 7 10.079V9.921C7 8.852 6.42 7.87 5.449 7.298C3.938 6.406 3 4.76 3 3V2H13V3C13 4.76 12.062 6.406 10.551 7.298C9.58 7.87 9 8.852 9 9.921V10.079C9 11.147 9.579 12.128 10.551 12.702Z" fill="#1C69D4"/>
</svg>
