<svg width="24" height="24" viewBox="0 0 24 24" fill="none" xmlns="http://www.w3.org/2000/svg">
<path d="M12 22C13.1046 22 14 21.1046 14 20C14 18.8954 13.1046 18 12 18C10.8954 18 10 18.8954 10 20C10 21.1046 10.8954 22 12 22Z" fill="black" fill-opacity="0.65"/>
<path d="M12 6C13.1046 6 14 5.10457 14 4C14 2.89543 13.1046 2 12 2C10.8954 2 10 2.89543 10 4C10 5.10457 10.8954 6 12 6Z" fill="#222222"/>
<path d="M6.34302 19.657C7.44759 19.657 8.34302 18.7616 8.34302 17.657C8.34302 16.5524 7.44759 15.657 6.34302 15.657C5.23845 15.657 4.34302 16.5524 4.34302 17.657C4.34302 18.7616 5.23845 19.657 6.34302 19.657Z" fill="black" fill-opacity="0.8"/>
<path d="M17.657 8.343C18.7616 8.343 19.657 7.44757 19.657 6.343C19.657 5.23843 18.7616 4.343 17.657 4.343C16.5524 4.343 15.657 5.23843 15.657 6.343C15.657 7.44757 16.5524 8.343 17.657 8.343Z" fill="black" fill-opacity="0.2"/>
<path d="M4.00002 14.001C5.10514 14.001 6.00102 13.1051 6.00102 12C6.00102 10.8949 5.10514 9.99899 4.00002 9.99899C2.8949 9.99899 1.99902 10.8949 1.99902 12C1.99902 13.1051 2.8949 14.001 4.00002 14.001Z" fill="#222222"/>
<path d="M20 14C21.1046 14 22 13.1046 22 12C22 10.8954 21.1046 10 20 10C18.8954 10 18 10.8954 18 12C18 13.1046 18.8954 14 20 14Z" fill="black" fill-opacity="0.35"/>
<path d="M6.34302 8.34399C7.44759 8.34399 8.34302 7.44856 8.34302 6.34399C8.34302 5.23942 7.44759 4.34399 6.34302 4.34399C5.23845 4.34399 4.34302 5.23942 4.34302 6.34399C4.34302 7.44856 5.23845 8.34399 6.34302 8.34399Z" fill="#222222"/>
<path d="M17.657 19.658C18.7616 19.658 19.657 18.7626 19.657 17.658C19.657 16.5534 18.7616 15.658 17.657 15.658C16.5524 15.658 15.657 16.5534 15.657 17.658C15.657 18.7626 16.5524 19.658 17.657 19.658Z" fill="black" fill-opacity="0.5"/>
</svg>
