<svg width="20" height="20" viewBox="0 0 20 20" fill="none" xmlns="http://www.w3.org/2000/svg">
<path d="M18 0H2C0.897 0 0 0.897 0 2V12C0 13.103 0.897 14 2 14H5V19.081L11.351 14H18C19.103 14 20 13.103 20 12V2C20 0.897 19.103 0 18 0ZM18 12H10.649L7 14.919V12H2V2H18V12Z" fill="#1C69D4"/>
<path d="M7.5 9C8.32843 9 9 8.32843 9 7.5C9 6.67157 8.32843 6 7.5 6C6.67157 6 6 6.67157 6 7.5C6 8.32843 6.67157 9 7.5 9Z" fill="#1C69D4"/>
<path d="M12.5 9C13.3284 9 14 8.32843 14 7.5C14 6.67157 13.3284 6 12.5 6C11.6716 6 11 6.67157 11 7.5C11 8.32843 11.6716 9 12.5 9Z" fill="#1C69D4"/>
</svg>
