<svg width="16" height="12" viewBox="0 0 16 12" fill="none" xmlns="http://www.w3.org/2000/svg">
<path d="M8 3.75C6.7685 3.75 5.75 4.76925 5.75 6C5.75 7.2315 6.7685 8.25 8 8.25C9.23075 8.25 10.25 7.2315 10.25 6C10.25 4.76925 9.23075 3.75 8 3.75Z" fill="#222222"/>
<path d="M8.0405 0.75C2.31575 0.75 0.59525 5.71275 0.5795 5.763L0.5 6L0.57875 6.237C0.59525 6.28725 2.31575 11.25 8.0405 11.25C13.7653 11.25 15.4858 6.28725 15.5015 6.237L15.581 6L15.5023 5.763C15.4858 5.71275 13.7653 0.75 8.0405 0.75ZM8.0405 9.75C4.02725 9.75 2.4725 6.8655 2.096 6C2.474 5.1315 4.0295 2.25 8.0405 2.25C12.0538 2.25 13.6085 5.1345 13.985 6C13.607 6.8685 12.0515 9.75 8.0405 9.75Z" fill="#222222"/>
</svg>
