<svg width="16" height="16" viewBox="0 0 16 16" fill="none" xmlns="http://www.w3.org/2000/svg">
<path d="M7.99981 13.0303C8.70931 13.0303 9.35731 12.953 9.94831 12.8195L8.63056 11.5017C8.42581 11.5175 8.21806 11.5302 7.99981 11.5302C3.98656 11.5302 2.43181 8.64575 2.05531 7.78025C2.20831 7.42775 2.56081 6.7445 3.18631 6.0575L2.13781 5.009C0.984312 6.25925 0.547062 7.5185 0.538812 7.54325C0.487062 7.697 0.487062 7.86425 0.538812 8.018C0.554562 8.0675 2.27506 13.0303 7.99981 13.0303ZM7.99981 2.53025C6.62206 2.53025 5.49031 2.82725 4.54681 3.266L1.78006 0.5L0.719562 1.5605L14.2196 15.0605L15.2801 14L12.7908 11.5108C14.7513 10.0475 15.4511 8.0495 15.4616 8.018C15.5133 7.86425 15.5133 7.697 15.4616 7.54325C15.4451 7.493 13.7246 2.53025 7.99981 2.53025ZM11.7288 10.4487L10.0188 8.73875C10.1613 8.44625 10.2498 8.1245 10.2498 7.78025C10.2498 6.5495 9.23056 5.53025 7.99981 5.53025C7.65556 5.53025 7.33381 5.61875 7.04206 5.762L5.68606 4.406C6.34681 4.175 7.11031 4.03025 7.99981 4.03025C12.0131 4.03025 13.5678 6.91475 13.9443 7.78025C13.7178 8.29925 13.0698 9.53675 11.7288 10.4487Z" fill="#222222"/>
</svg>
