<svg width="13" height="13" viewBox="0 0 13 13" fill="none" xmlns="http://www.w3.org/2000/svg">
<path d="M12.7086 0.449021C12.514 0.316354 12.264 0.296354 12.0493 0.396354L0.715973 5.72969C0.479307 5.84169 0.329973 6.08102 0.333307 6.34235C0.337307 6.60369 0.493307 6.83902 0.733307 6.94369L4.33331 8.51902V13.0004L8.22397 10.2217L11.4 11.611C11.4853 11.649 11.5766 11.667 11.6666 11.667C11.7873 11.667 11.9066 11.6344 12.0133 11.5697C12.1986 11.457 12.318 11.261 12.3326 11.0444L12.9993 1.04435C13.014 0.808354 12.904 0.582354 12.7086 0.449021ZM11.0646 10.009L7.55197 8.47169L9.66664 4.33369L4.56731 7.16702L2.61264 6.31169L11.5933 2.08502L11.0646 10.009Z" fill="#1C69D4"/>
</svg>
