<svg width="19" height="19" viewBox="0 0 19 19" fill="none" xmlns="http://www.w3.org/2000/svg">
<path d="M18.2061 0.173561C17.9263 -0.0254387 17.5669 -0.0554387 17.2583 0.0945613L0.966666 8.09456C0.626457 8.26256 0.411791 8.62156 0.416582 9.01356C0.422332 9.40556 0.646582 9.75856 0.991582 9.91556L6.16658 12.2786V19.0006L11.7594 14.8326L16.3249 16.9166C16.4476 16.9736 16.5789 17.0006 16.7082 17.0006C16.8817 17.0006 17.0532 16.9516 17.2066 16.8546C17.473 16.6856 17.6445 16.3916 17.6656 16.0666L18.624 1.06656C18.645 0.712561 18.4869 0.373561 18.2061 0.173561ZM15.8429 14.5136L10.7934 12.2076L13.8332 6.00056L6.50296 10.2506L3.69312 8.96756L16.6028 2.62756L15.8429 14.5136Z" fill="#222222"/>
</svg>
