<svg width="22" height="22" viewBox="0 0 22 22" fill="none" xmlns="http://www.w3.org/2000/svg">
<path fill-rule="evenodd" clip-rule="evenodd" d="M10.2929 4.70711C9.90239 4.31658 9.90239 3.68342 10.2929 3.29289L13.2929 0.292894C13.6834 -0.0976312 14.3166 -0.0976312 14.7071 0.292894L21.7071 7.29289C22.0977 7.68342 22.0977 8.31658 21.7071 8.70711L18.7071 11.7071C18.3166 12.0976 17.6834 12.0976 17.2929 11.7071L10.2929 4.70711ZM18 9.58579L19.5858 8L14 2.41421L12.4142 4L18 9.58579Z" fill="#1C69D4"/>
<path fill-rule="evenodd" clip-rule="evenodd" d="M0.292914 21.7071C0.0465814 21.4608 -0.0538027 21.104 0.0279382 20.7654L3.52794 6.26536C3.6193 5.88684 3.92208 5.59579 4.3039 5.51942L11.8039 4.01942C12.1318 3.95385 12.4707 4.05647 12.7071 4.29289L17.7071 9.29289C17.9436 9.52932 18.0462 9.86826 17.9806 10.1961L16.4806 17.6961C16.4042 18.0779 16.1132 18.3807 15.7347 18.4721L1.23466 21.9721C0.89602 22.0538 0.539246 21.9534 0.292914 21.7071ZM2.35606 19.644L14.6447 16.6777L15.9145 10.3287L11.6713 6.08554L5.32228 7.35535L2.35606 19.644Z" fill="#1C69D4"/>
<path fill-rule="evenodd" clip-rule="evenodd" d="M0.292914 21.7071C-0.0976107 21.3166 -0.0976107 20.6834 0.292914 20.2929L7.87891 12.7069C8.26944 12.3164 8.9026 12.3164 9.29313 12.7069C9.68365 13.0974 9.68365 13.7306 9.29313 14.1211L1.70713 21.7071C1.3166 22.0976 0.683438 22.0976 0.292914 21.7071Z" fill="#1C69D4"/>
<path fill-rule="evenodd" clip-rule="evenodd" d="M9.00002 12C9.00002 12.5523 9.44773 13 10 13C10.5523 13 11 12.5523 11 12C11 11.4477 10.5523 11 10 11C9.44773 11 9.00002 11.4477 9.00002 12ZM10 15C8.34317 15 7.00002 13.6569 7.00002 12C7.00002 10.3431 8.34317 9 10 9C11.6569 9 13 10.3431 13 12C13 13.6569 11.6569 15 10 15Z" fill="#1C69D4"/>
</svg>
