<svg width="37" height="39" viewBox="0 0 37 39" fill="none" xmlns="http://www.w3.org/2000/svg">
<path d="M18.0249 0.87146C12.5109 0.87146 8.0249 5.35746 8.0249 10.8715C8.0249 16.3855 12.5109 20.8715 18.0249 20.8715C23.5389 20.8715 28.0249 16.3855 28.0249 10.8715C28.0249 5.35746 23.5389 0.87146 18.0249 0.87146ZM18.0249 16.8715C14.7169 16.8715 12.0249 14.1795 12.0249 10.8715C12.0249 7.56346 14.7169 4.87146 18.0249 4.87146C21.3329 4.87146 24.0249 7.56346 24.0249 10.8715C24.0249 14.1795 21.3329 16.8715 18.0249 16.8715ZM36.0249 38.8715V36.8715C36.0249 29.1535 29.7429 22.8715 22.0249 22.8715H14.0249C6.3049 22.8715 0.0249023 29.1535 0.0249023 36.8715V38.8715H4.0249V36.8715C4.0249 31.3575 8.5109 26.8715 14.0249 26.8715H22.0249C27.5389 26.8715 32.0249 31.3575 32.0249 36.8715V38.8715H36.0249Z" fill="#222222"/>
</svg>
