<svg width="24" height="24" viewBox="0 0 24 24" fill="none" xmlns="http://www.w3.org/2000/svg">
<path d="M12.0127 1.93573C9.2557 1.93573 7.0127 4.17873 7.0127 6.93573C7.0127 9.69273 9.2557 11.9357 12.0127 11.9357C14.7697 11.9357 17.0127 9.69273 17.0127 6.93573C17.0127 4.17873 14.7697 1.93573 12.0127 1.93573ZM12.0127 9.93573C10.3587 9.93573 9.0127 8.58973 9.0127 6.93573C9.0127 5.28173 10.3587 3.93573 12.0127 3.93573C13.6667 3.93573 15.0127 5.28173 15.0127 6.93573C15.0127 8.58973 13.6667 9.93573 12.0127 9.93573ZM21.0127 20.9357V19.9357C21.0127 16.0767 17.8717 12.9357 14.0127 12.9357H10.0127C6.1527 12.9357 3.0127 16.0767 3.0127 19.9357V20.9357H5.0127V19.9357C5.0127 17.1787 7.2557 14.9357 10.0127 14.9357H14.0127C16.7697 14.9357 19.0127 17.1787 19.0127 19.9357V20.9357H21.0127Z" fill="#222222"/>
</svg>
