<svg width="14" height="14" viewBox="0 0 14 14" fill="none" xmlns="http://www.w3.org/2000/svg">
<path d="M11.6666 3.66665H10.9999V0.333313H2.99992V3.66665H2.33325C1.23059 3.66665 0.333252 4.56398 0.333252 5.66665V10.3333C0.333252 11.0686 0.931252 11.6666 1.66659 11.6666H2.99992V13.6666H10.9999V11.6666H12.3333C13.0686 11.6666 13.6666 11.0686 13.6666 10.3333V5.66665C13.6666 4.56398 12.7693 3.66665 11.6666 3.66665ZM4.33325 1.66665H9.66659V3.66665H4.33325V1.66665ZM9.66659 12.3333H4.33325V9.66665H9.66659V12.3333ZM12.3333 10.3333H10.9999V8.33331H2.99992V10.3333H1.66659V5.66665C1.66659 5.29931 1.96592 4.99998 2.33325 4.99998H11.6666C12.0346 4.99998 12.3333 5.29931 12.3333 5.66665V10.3333Z" fill="#1C69D4"/>
<path d="M8.33325 5.66665H10.9999V6.99998H8.33325V5.66665Z" fill="#1C69D4"/>
</svg>
