<svg width="20" height="20" viewBox="0 0 20 20" fill="none" xmlns="http://www.w3.org/2000/svg">
<path fill-rule="evenodd" clip-rule="evenodd" d="M10 2.50004C5.8579 2.50004 2.50004 5.8579 2.50004 10C2.50004 14.1422 5.8579 17.5 10 17.5C14.1422 17.5 17.5 14.1422 17.5 10C17.5 5.8579 14.1422 2.50004 10 2.50004ZM0.833374 10C0.833374 4.93743 4.93743 0.833374 10 0.833374C15.0626 0.833374 19.1667 4.93743 19.1667 10C19.1667 15.0626 15.0626 19.1667 10 19.1667C4.93743 19.1667 0.833374 15.0626 0.833374 10ZM10.2151 6.68697C9.8272 6.62043 9.42824 6.69333 9.0889 6.89276C8.74957 7.09219 8.49177 7.40528 8.36115 7.77658C8.20843 8.21073 7.73266 8.43888 7.2985 8.28615C6.86435 8.13343 6.6362 7.65766 6.78893 7.2235C7.05016 6.48091 7.56576 5.85473 8.24443 5.45587C8.9231 5.05701 9.72103 4.91121 10.4969 5.0443C11.2728 5.17738 11.9765 5.58075 12.4835 6.18298C12.9903 6.78508 13.2678 7.54711 13.2667 8.33413C13.2663 9.60943 12.3208 10.4516 11.6456 10.9017C11.2826 11.1438 10.9255 11.3217 10.6624 11.4386C10.5297 11.4976 10.418 11.5424 10.3375 11.573C10.2971 11.5884 10.2644 11.6003 10.2406 11.6088L10.2117 11.6189L10.2025 11.6221L10.1992 11.6232L10.1979 11.6236C10.1977 11.6237 10.1969 11.6239 9.93337 10.8334L10.1969 11.6239C9.76028 11.7695 9.28834 11.5335 9.1428 11.0969C8.99731 10.6604 9.23307 10.1887 9.66941 10.0429L9.68227 10.0384C9.69509 10.0339 9.7161 10.0262 9.74413 10.0156C9.80032 9.99416 9.88389 9.9608 9.98555 9.91561C10.1912 9.82419 10.4591 9.68965 10.7211 9.515C11.2958 9.13189 11.6 8.72432 11.6 8.33337L11.6 8.33213C11.6006 7.93853 11.4619 7.55743 11.2084 7.25631C10.9549 6.9552 10.6031 6.75351 10.2151 6.68697ZM9.16671 14.1667C9.16671 13.7065 9.5398 13.3334 10 13.3334H10.0084C10.4686 13.3334 10.8417 13.7065 10.8417 14.1667C10.8417 14.6269 10.4686 15 10.0084 15H10C9.5398 15 9.16671 14.6269 9.16671 14.1667Z" fill="#005F17"/>
</svg>
