<svg width="14" height="10" viewBox="0 0 14 10" fill="none" xmlns="http://www.w3.org/2000/svg">
<path d="M5.66659 4.33315H3.73392C3.73392 4.33115 3.73392 4.32915 3.73459 4.32715C3.77792 4.11448 3.84325 3.90448 3.92859 3.70248C4.01259 3.50448 4.11592 3.31381 4.23592 3.13581C4.35459 2.95981 4.49192 2.79381 4.64259 2.64248C4.79392 2.49181 4.95992 2.35448 5.13725 2.23515C5.31459 2.11515 5.50459 2.01248 5.70259 1.92848C5.90392 1.84315 6.11392 1.77781 6.32792 1.73448C6.76659 1.64448 7.23259 1.64448 7.67325 1.73448C7.88525 1.77781 8.09592 1.84315 8.29792 1.92848C8.49525 2.01181 8.68525 2.11581 8.86459 2.23581C9.04192 2.35515 9.20725 2.49181 9.35659 2.64181L10.3006 1.70048C10.0913 1.48981 9.85792 1.29781 9.60992 1.13048C9.36125 0.96248 9.09459 0.817146 8.81792 0.699813C8.53459 0.579813 8.23925 0.48848 7.94125 0.427813C7.32592 0.301813 6.67525 0.301813 6.06192 0.427813C5.76259 0.489146 5.46725 0.58048 5.18459 0.70048C4.90525 0.817813 4.63859 0.96248 4.39059 1.13048C4.14392 1.29648 3.91192 1.48848 3.69992 1.69981C3.48792 1.91115 3.29659 2.14381 3.13125 2.38981C2.96325 2.63848 2.81792 2.90515 2.70059 3.18315C2.58059 3.46581 2.48925 3.76115 2.42859 4.05981C2.40992 4.14981 2.39992 4.24181 2.38659 4.33315H0.333252L2.99992 6.99981L5.66659 4.33315ZM8.33325 5.66648H10.2659C10.2653 5.66848 10.2659 5.67048 10.2653 5.67181C10.2213 5.88781 10.1559 6.09781 10.0706 6.29715C9.98859 6.49248 9.88525 6.68315 9.76459 6.86248C9.64525 7.03848 9.50792 7.20515 9.35592 7.35715C9.20592 7.50715 9.04059 7.64381 8.86325 7.76381C8.68459 7.88381 8.49459 7.98715 8.29725 8.07115C8.09525 8.15648 7.88525 8.22181 7.67192 8.26515C7.23392 8.35515 6.76725 8.35515 6.32725 8.26515C6.11459 8.22181 5.90459 8.15648 5.70259 8.07115C5.50459 7.98715 5.31392 7.88381 5.13592 7.76381C4.95992 7.64515 4.79392 7.50781 4.64259 7.35715L3.69992 8.29981C3.91125 8.51115 4.14392 8.70315 4.38992 8.86915C4.63859 9.03715 4.90525 9.18248 5.18325 9.29981C5.46592 9.41981 5.76125 9.51115 6.05992 9.57181C6.36725 9.63448 6.68325 9.66648 6.99992 9.66648C7.31659 9.66648 7.63259 9.63448 7.93859 9.57181C8.23792 9.51115 8.53392 9.41915 8.81659 9.29915C9.09325 9.18181 9.35992 9.03715 9.60859 8.86915C9.85659 8.70181 10.0899 8.50915 10.2986 8.29981C10.5099 8.08848 10.7019 7.85581 10.8686 7.60848C11.0379 7.35715 11.1833 7.09048 11.2986 6.81715C11.4173 6.53715 11.5086 6.24181 11.5706 5.93981C11.5886 5.84981 11.5993 5.75781 11.6126 5.66648H13.6666L10.9999 2.99981L8.33325 5.66648Z" fill="black"/>
</svg>
