<svg width="18" height="18" viewBox="0 0 18 18" fill="none" xmlns="http://www.w3.org/2000/svg">
<path d="M7.69765 15.3945C9.47389 15.3945 11.1068 14.7835 12.4096 13.7704L16.6394 18L18 16.6395L13.7701 12.4099C14.7843 11.1062 15.3953 9.47338 15.3953 7.69724C15.3953 3.45318 11.9419 0 7.69765 0C3.45336 0 0 3.45318 0 7.69724C0 11.9413 3.45336 15.3945 7.69765 15.3945ZM7.69765 1.92431C10.8816 1.92431 13.4709 4.51347 13.4709 7.69724C13.4709 10.881 10.8816 13.4702 7.69765 13.4702C4.51371 13.4702 1.92441 10.881 1.92441 7.69724C1.92441 4.51347 4.51371 1.92431 7.69765 1.92431Z" fill="#222222"/>
</svg>
