<svg width="19" height="18" viewBox="0 0 19 18" fill="none" xmlns="http://www.w3.org/2000/svg">
<path d="M8.25192 15.3945C9.95414 15.3945 11.519 14.7835 12.7675 13.7704L16.8211 18L18.125 16.6395L14.0714 12.4099C15.0433 11.1062 15.6288 9.47338 15.6288 7.69724C15.6288 3.45318 12.3194 0 8.25192 0C4.18447 0 0.875 3.45318 0.875 7.69724C0.875 11.9413 4.18447 15.3945 8.25192 15.3945ZM8.25192 1.92431C11.3032 1.92431 13.7846 4.51347 13.7846 7.69724C13.7846 10.881 11.3032 13.4702 8.25192 13.4702C5.20064 13.4702 2.71923 10.881 2.71923 7.69724C2.71923 4.51347 5.20064 1.92431 8.25192 1.92431Z" fill="#1C69D4"/>
</svg>
