<svg width="36" height="36" viewBox="0 0 36 36" fill="none" xmlns="http://www.w3.org/2000/svg">
<path d="M15.3953 30.789C18.9478 30.789 22.2135 29.567 24.8192 27.5407L33.2789 36L36 33.279L27.5403 24.8198C29.5686 22.2123 30.7906 18.9468 30.7906 15.3945C30.7906 6.90635 23.8839 0 15.3953 0C6.90672 0 0 6.90635 0 15.3945C0 23.8826 6.90672 30.789 15.3953 30.789ZM15.3953 3.84862C21.7632 3.84862 26.9418 9.02694 26.9418 15.3945C26.9418 21.762 21.7632 26.9403 15.3953 26.9403C9.02742 26.9403 3.84883 21.762 3.84883 15.3945C3.84883 9.02694 9.02742 3.84862 15.3953 3.84862Z" fill="#222222"/>
</svg>
