<svg width="30" height="24" viewBox="0 0 30 24" fill="none" xmlns="http://www.w3.org/2000/svg">
<path d="M29.5 22.9985H28V7.99851C28 7.99851 28 7.95851 28 7.94351C28.0028 7.91024 28.0028 7.87679 28 7.84351C27.9897 7.81227 27.9763 7.78212 27.96 7.75351L27.905 7.67851C27.8837 7.65147 27.8584 7.62786 27.83 7.60851C27.83 7.60851 27.805 7.57851 27.785 7.56851L15.285 0.0685134C15.209 0.0246292 15.1228 0.00152588 15.035 0.00152588C14.9472 0.00152588 14.861 0.0246292 14.785 0.0685134L2.285 7.56851C2.285 7.56851 2.255 7.59851 2.24 7.60851C2.21155 7.62786 2.18626 7.65147 2.165 7.67851C2.14387 7.70314 2.12543 7.72996 2.11 7.75851C2.09274 7.78483 2.07927 7.81344 2.07 7.84351C2.06717 7.87679 2.06717 7.91024 2.07 7.94351L2 7.99851V22.9985H0.5C0.367392 22.9985 0.240214 23.0512 0.146446 23.145C0.052678 23.2387 0 23.3659 0 23.4985C0 23.6311 0.052678 23.7583 0.146446 23.8521C0.240214 23.9458 0.367392 23.9985 0.5 23.9985H29.5C29.6326 23.9985 29.7598 23.9458 29.8536 23.8521C29.9473 23.7583 30 23.6341 30 23.5015C30 23.3689 29.9473 23.2387 29.8536 23.145C29.7598 23.0512 29.6326 22.9985 29.5 22.9985ZM7 22.9985V11.9985H23V22.9985H7ZM24 22.9985V11.4985C24 11.3659 23.9473 11.2387 23.8536 11.145C23.7598 11.0512 23.6326 10.9985 23.5 10.9985H6.5C6.36739 10.9985 6.24021 11.0512 6.14645 11.145C6.05268 11.2387 6 11.3659 6 11.4985V22.9985H3V8.28351L15 1.08351L27 8.28351V22.9985H24Z" fill="#222222"/>
<path d="M16.5 7.99854H13.5C13.3674 7.99854 13.2402 8.05121 13.1464 8.14498C13.0527 8.23875 13 8.36593 13 8.49854C13 8.63114 13.0527 8.75832 13.1464 8.85209C13.2402 8.94586 13.3674 8.99854 13.5 8.99854H16.5C16.6326 8.99854 16.7598 8.94586 16.8536 8.85209C16.9473 8.75832 17 8.63114 17 8.49854C17 8.36593 16.9473 8.23875 16.8536 8.14498C16.7598 8.05121 16.6326 7.99854 16.5 7.99854Z" fill="#222222"/>
<path d="M19.5 13.9985H10.5C10.3674 13.9985 10.2402 14.0512 10.1464 14.145C10.0527 14.2387 10 14.3659 10 14.4985C10 14.6311 10.0527 14.7583 10.1464 14.8521C10.2402 14.9459 10.3674 14.9985 10.5 14.9985H19.5C19.6326 14.9985 19.7598 14.9459 19.8536 14.8521C19.9473 14.7583 20 14.6311 20 14.4985C20 14.3659 19.9473 14.2387 19.8536 14.145C19.7598 14.0512 19.6326 13.9985 19.5 13.9985Z" fill="#222222"/>
<path d="M19.5 16.9985H10.5C10.3674 16.9985 10.2402 17.0512 10.1464 17.145C10.0527 17.2387 10 17.3659 10 17.4985C10 17.6311 10.0527 17.7583 10.1464 17.8521C10.2402 17.9459 10.3674 17.9985 10.5 17.9985H19.5C19.6326 17.9985 19.7598 17.9459 19.8536 17.8521C19.9473 17.7583 20 17.6311 20 17.4985C20 17.3659 19.9473 17.2387 19.8536 17.145C19.7598 17.0512 19.6326 16.9985 19.5 16.9985Z" fill="#222222"/>
<path d="M19.5 19.9985H10.5C10.3674 19.9985 10.2402 20.0512 10.1464 20.145C10.0527 20.2387 10 20.3659 10 20.4985C10 20.6311 10.0527 20.7583 10.1464 20.8521C10.2402 20.9459 10.3674 20.9985 10.5 20.9985H19.5C19.6326 20.9985 19.7598 20.9459 19.8536 20.8521C19.9473 20.7583 20 20.6311 20 20.4985C20 20.3659 19.9473 20.2387 19.8536 20.145C19.7598 20.0512 19.6326 19.9985 19.5 19.9985Z" fill="#222222"/>
</svg>
