<svg width="74" height="74" viewBox="0 0 74 74" fill="none" xmlns="http://www.w3.org/2000/svg">
<path fill-rule="evenodd" clip-rule="evenodd" d="M49.21 9.57805C43.3008 6.94506 36.6988 6.29278 30.3885 7.71849C24.0783 9.1442 18.398 12.5715 14.1948 17.4893C9.9916 22.407 7.49067 28.5518 7.06501 35.007C6.63936 41.4622 8.31178 47.8822 11.8329 53.3093C15.3539 58.7364 20.535 62.8799 26.6034 65.1218C32.6718 67.3638 39.3023 67.584 45.5061 65.7498C51.7098 63.9155 57.1545 60.125 61.028 54.9435C64.9015 49.7621 66.9963 43.4673 67 36.9981V33.9333C67 32.0923 68.4924 30.6 70.3333 30.6C72.1743 30.6 73.6667 32.0923 73.6667 33.9333V37C73.6621 44.9068 71.1018 52.6023 66.3675 58.9352C61.6333 65.2681 54.9787 69.901 47.3963 72.1428C39.8139 74.3847 31.7099 74.1155 24.293 71.3753C16.8761 68.6352 10.5437 63.5709 6.24017 56.9378C1.93662 50.3047 -0.107453 42.4581 0.412795 34.5684C0.933042 26.6786 3.98974 19.1684 9.127 13.1578C14.2643 7.1472 21.2069 2.95827 28.9193 1.21573C36.6318 -0.526802 44.701 0.270432 51.9233 3.48853C53.6049 4.2378 54.3607 6.20838 53.6114 7.88996C52.8622 9.57153 50.8916 10.3273 49.21 9.57805Z" fill="#3CA255"/>
<path fill-rule="evenodd" clip-rule="evenodd" d="M72.6892 7.97509C73.9916 9.27619 73.9926 11.3867 72.6915 12.6891L39.3582 46.0558C38.7332 46.6814 37.8852 47.0331 37.0008 47.0333C36.1165 47.0335 35.2683 46.6823 34.643 46.057L24.643 36.057C23.3412 34.7552 23.3412 32.6447 24.643 31.3429C25.9447 30.0412 28.0553 30.0412 29.357 31.3429L36.9988 38.9847L67.9751 7.97745C69.2762 6.67505 71.3868 6.674 72.6892 7.97509Z" fill="#3CA255"/>
</svg>
