<svg width="20" height="19" viewBox="0 0 20 19" fill="none" xmlns="http://www.w3.org/2000/svg">
<path d="M16.3 13.89C17.62 11.79 17 9 14.89 7.68C12.79 6.36 10 7 8.68 9.09C7.36 11.2 8 14 10.09 15.3C11.56 16.22 13.42 16.22 14.89 15.3L18 18.39L19.39 17L16.3 13.89ZM14.3 13.27C13.32 14.25 11.74 14.24 10.76 13.27C9.79 12.29 9.79 10.71 10.77 9.73C11.74 8.76 13.32 8.76 14.3 9.73C15.26 10.72 15.25 12.3 14.27 13.27H14.3ZM16 0H2C1.46957 0 0.960859 0.210714 0.585786 0.585786C0.210714 0.960859 0 1.46957 0 2V14C0 14.5304 0.210714 15.0391 0.585786 15.4142C0.960859 15.7893 1.46957 16 2 16H7.81C7.25 15.42 6.8 14.74 6.5 14H2V10H6.18C6.34 9.29 6.61 8.61 7 8H2V4H8V6.81C8.58 6.25 9.26 5.8 10 5.5V4H16V6C16.4 6.25 16.77 6.55 17.1 6.88C17.44 7.22 17.74 7.59 18 8V2C18 1.46957 17.7893 0.960859 17.4142 0.585786C17.0391 0.210714 16.5304 0 16 0Z" fill="#1C69D4"/>
</svg>
