<svg width="19" height="19" viewBox="0 0 19 19" fill="none" xmlns="http://www.w3.org/2000/svg">
<path d="M15.9879 0L18.9881 3.00031L16.7013 5.28705L13.7011 2.28674L15.9879 0Z" fill="#1C69D4"/>
<path d="M5 13.9879H8L15.287 6.7009L12.287 3.7009L5 10.9879V13.9879Z" fill="#1C69D4"/>
<path d="M16 16.9879H5.158C5.132 16.9879 5.105 16.9979 5.079 16.9979C5.046 16.9979 5.013 16.9889 4.979 16.9879H2V2.98788H8.847L10.847 0.987885H2C0.897 0.987885 0 1.88388 0 2.98788V16.9879C0 18.0919 0.897 18.9879 2 18.9879H16C17.104 18.9879 18 18.0919 18 16.9879V8.31988L16 10.3199V16.9879Z" fill="#1C69D4"/>
</svg>
