<svg width="44" height="32" viewBox="0 0 44 32" fill="none" xmlns="http://www.w3.org/2000/svg">
<path d="M34 29C35.66 29 37 27.66 37 26C37 24.34 35.66 23 34 23C32.34 23 31 24.34 31 26C31 27.66 32.34 29 34 29ZM37 11H32V16H40.92L37 11ZM10 29C11.66 29 13 27.66 13 26C13 24.34 11.66 23 10 23C8.34 23 7 24.34 7 26C7 27.66 8.34 29 10 29ZM38 8L44 16V26H40C40 29.32 37.32 32 34 32C30.68 32 28 29.32 28 26H16C16 29.32 13.32 32 10 32C6.68 32 4 29.32 4 26H0V4C0 1.78 1.78 0 4 0H32V8H38ZM4 4V22H5.52C6.62 20.78 8.22 20 10 20C11.78 20 13.38 20.78 14.48 22H28V4H4ZM18 6L25 13L18 20V15H8V11H18V6Z" fill="#222222"/>
</svg>
