<svg width="30" height="30" viewBox="0 0 30 30" fill="none" xmlns="http://www.w3.org/2000/svg">
<rect width="30" height="30" rx="15" fill="white"/>
<path d="M12.7506 15C12.7506 13.6193 13.9256 12.4998 15.3753 12.4998C16.8251 12.4998 18.0006 13.6193 18.0006 15C18.0006 16.3807 16.8251 17.5002 15.3753 17.5002C13.9256 17.5002 12.7506 16.3807 12.7506 15ZM11.3314 15C11.3314 17.127 13.1419 18.8512 15.3753 18.8512C17.6088 18.8512 19.4192 17.127 19.4192 15C19.4192 12.873 17.6088 11.1488 15.3753 11.1488C13.1419 11.1488 11.3314 12.873 11.3314 15ZM18.6342 10.9961C18.6342 11.1741 18.6895 11.3482 18.7933 11.4962C18.8971 11.6443 19.0446 11.7597 19.2173 11.8279C19.3899 11.896 19.5799 11.9139 19.7633 11.8793C19.9466 11.8446 20.115 11.759 20.2473 11.6332C20.3795 11.5073 20.4696 11.347 20.5061 11.1724C20.5426 10.9979 20.524 10.8169 20.4525 10.6524C20.3811 10.4879 20.26 10.3473 20.1046 10.2484C19.9493 10.1494 19.7666 10.0966 19.5797 10.0965H19.5793C19.3287 10.0966 19.0885 10.1914 18.9113 10.3601C18.7341 10.5288 18.6345 10.7575 18.6342 10.9961ZM12.1937 21.1048C11.4259 21.0715 11.0085 20.9497 10.7312 20.8468C10.3635 20.7105 10.1012 20.5481 9.82536 20.2858C9.54954 20.0235 9.3788 19.7739 9.23629 19.4237C9.12817 19.1597 9.00028 18.7622 8.96538 18.031C8.9272 17.2404 8.91957 17.0029 8.91957 15.0001C8.91957 12.9972 8.92783 12.7604 8.96538 11.9692C9.00034 11.2379 9.12918 10.8412 9.23629 10.5764C9.37943 10.2262 9.54991 9.97638 9.82536 9.7137C10.1008 9.45102 10.3629 9.28842 10.7312 9.1527C11.0084 9.04974 11.4259 8.92794 12.1937 8.8947C13.0238 8.85834 13.2732 8.85108 15.3753 8.85108C17.4775 8.85108 17.7271 8.85894 18.5579 8.8947C19.3257 8.928 19.7423 9.0507 20.0204 9.1527C20.388 9.28842 20.6504 9.45138 20.9262 9.7137C21.202 9.97602 21.3721 10.2262 21.5153 10.5764C21.6234 10.8404 21.7513 11.2379 21.7862 11.9692C21.8244 12.7604 21.832 12.9972 21.832 15.0001C21.832 17.0029 21.8244 17.2397 21.7862 18.031C21.7512 18.7622 21.6227 19.1596 21.5153 19.4237C21.3721 19.7739 21.2017 20.0237 20.9262 20.2858C20.6508 20.5479 20.388 20.7105 20.0204 20.8468C19.7432 20.9498 19.3257 21.0716 18.5579 21.1048C17.7278 21.1412 17.4784 21.1484 15.3753 21.1484C13.2722 21.1484 13.0236 21.1412 12.1937 21.1048ZM12.1285 7.54542C11.2901 7.58178 10.7172 7.70838 10.2169 7.89378C9.69879 8.08524 9.26016 8.3421 8.82186 8.75886C8.38355 9.17562 8.11453 9.594 7.91349 10.0874C7.71881 10.5642 7.58587 11.1095 7.54769 11.9079C7.50888 12.7076 7.5 12.9632 7.5 15C7.5 17.0368 7.50888 17.2924 7.54769 18.0921C7.58587 18.8906 7.71881 19.4358 7.91349 19.9126C8.11453 20.4057 8.38361 20.8246 8.82186 21.2411C9.2601 21.6577 9.69879 21.9142 10.2169 22.1062C10.7182 22.2916 11.2901 22.4182 12.1285 22.4546C12.9686 22.4909 13.2366 22.5 15.3753 22.5C17.514 22.5 17.7825 22.4915 18.6222 22.4546C19.4606 22.4182 20.0331 22.2916 20.5337 22.1062C21.0515 21.9142 21.4905 21.6579 21.9288 21.2411C22.3671 20.8244 22.6355 20.4057 22.8371 19.9126C23.0318 19.4358 23.1654 18.8905 23.2029 18.0921C23.2411 17.2918 23.25 17.0368 23.25 15C23.25 12.9632 23.2411 12.7076 23.2029 11.9079C23.1648 11.1094 23.0318 10.5639 22.8371 10.0874C22.6355 9.5943 22.3664 9.17628 21.9288 8.75886C21.4912 8.34144 21.0515 8.08524 20.5343 7.89378C20.0331 7.70838 19.4605 7.58118 18.6228 7.54542C17.7831 7.50906 17.5146 7.5 15.3759 7.5C13.2373 7.5 12.9686 7.50846 12.1285 7.54542Z" fill="#222222"/>
</svg>
