<svg width="30" height="30" viewBox="0 0 30 30" fill="none" xmlns="http://www.w3.org/2000/svg">
<rect width="30" height="30" rx="15" fill="white"/>
<path fill-rule="evenodd" clip-rule="evenodd" d="M22.8714 11.1602C22.9862 10.7797 22.8714 10.5 22.3255 10.5H20.5204C20.0614 10.5 19.8499 10.7416 19.7352 11.008C19.7352 11.008 18.8172 13.2342 17.5167 14.6803C17.096 15.0989 16.9048 15.232 16.6753 15.232C16.5605 15.232 16.3944 15.0989 16.3944 14.7184V11.1602C16.3944 10.7035 16.2612 10.5 15.8787 10.5H13.0421C12.7553 10.5 12.5828 10.7119 12.5828 10.9128C12.5828 11.3458 13.2329 11.4456 13.3 12.6633V15.3083C13.3 15.8882 13.1948 15.9934 12.9652 15.9934C12.3533 15.9934 10.8649 13.757 9.98192 11.1983C9.80889 10.7009 9.63534 10.5 9.174 10.5H7.36889C6.85315 10.5 6.75 10.7416 6.75 11.008C6.75 11.4837 7.36206 13.8432 9.59949 16.9637C11.0913 19.0946 13.1927 20.25 15.1051 20.25C16.2526 20.25 16.3944 19.9934 16.3944 19.5515V17.9408C16.3944 17.4276 16.5031 17.3253 16.8663 17.3253C17.1343 17.3253 17.5932 17.4584 18.6642 18.4859C19.8881 19.7035 20.0898 20.25 20.7783 20.25H22.5834C23.0991 20.25 23.357 19.9934 23.2082 19.4871C23.0455 18.9824 22.4612 18.2504 21.6857 17.3823C21.265 16.8875 20.6339 16.3547 20.4428 16.0884C20.175 15.7459 20.2514 15.5937 20.4428 15.2894C20.4428 15.2894 22.6419 12.2069 22.8714 11.1603V11.1602Z" fill="#222222"/>
</svg>
