<svg width="30" height="30" viewBox="0 0 30 30" fill="none" xmlns="http://www.w3.org/2000/svg">
<rect width="30" height="30" rx="15" fill="white"/>
<path d="M20.4421 10.3297C19.1219 8.98176 17.297 8.25 15.4332 8.25C11.4728 8.25 8.28883 11.4466 8.32766 15.3365C8.32766 16.5689 8.67711 17.7628 9.25954 18.8412L8.25 22.5L12.0163 21.5372C13.0647 22.1149 14.2296 22.3845 15.3944 22.3845C19.3161 22.3845 22.5 19.1878 22.5 15.298C22.5 13.4108 21.7623 11.6392 20.4421 10.3297ZM15.4332 21.1905C14.3849 21.1905 13.3365 20.9209 12.4435 20.3818L12.2105 20.2662L9.95845 20.8439L10.5409 18.6486L10.3856 18.4176C8.67711 15.6831 9.49251 12.0628 12.2881 10.3682C15.0838 8.67365 18.6948 9.48243 20.4033 12.2554C22.1117 15.0284 21.2963 18.6101 18.5007 20.3047C17.6076 20.8824 16.5204 21.1905 15.4332 21.1905ZM18.8501 16.9155L18.423 16.723C18.423 16.723 17.8018 16.4534 17.4135 16.2608C17.3747 16.2608 17.3358 16.2223 17.297 16.2223C17.1805 16.2223 17.1029 16.2608 17.0252 16.2993C17.0252 16.2993 16.9864 16.3378 16.4428 16.9541C16.404 17.0311 16.3263 17.0696 16.2486 17.0696H16.2098C16.171 17.0696 16.0933 17.0311 16.0545 16.9926L15.8604 16.9155C15.4332 16.723 15.045 16.4919 14.7343 16.1838C14.6567 16.1068 14.5402 16.0297 14.4625 15.9527C14.1907 15.6831 13.9189 15.375 13.7248 15.0284L13.686 14.9514C13.6471 14.9128 13.6471 14.8743 13.6083 14.7973C13.6083 14.7203 13.6083 14.6432 13.6471 14.6047C13.6471 14.6047 13.8025 14.4122 13.9189 14.2966C13.9966 14.2196 14.0354 14.1041 14.1131 14.027C14.1907 13.9115 14.2296 13.7574 14.1907 13.6419C14.1519 13.4493 13.686 12.4095 13.5695 12.1784C13.4918 12.0628 13.4142 12.0243 13.2977 11.9858H13.1812C13.1035 11.9858 12.9871 11.9858 12.8706 11.9858C12.7929 11.9858 12.7153 12.0243 12.6376 12.0243L12.5988 12.0628C12.5211 12.1014 12.4435 12.1784 12.3658 12.2169C12.2881 12.2939 12.2493 12.3709 12.1717 12.448C11.8999 12.7946 11.7446 13.2182 11.7446 13.6419C11.7446 13.95 11.8222 14.2581 11.9387 14.5277L11.9775 14.6432C12.327 15.375 12.7929 16.0297 13.4142 16.6074L13.5695 16.7615C13.686 16.877 13.8025 16.9541 13.8801 17.0696C14.6955 17.7628 15.6274 18.2635 16.6757 18.5331C16.7922 18.5716 16.9475 18.5716 17.064 18.6101C17.1805 18.6101 17.3358 18.6101 17.4523 18.6101C17.6465 18.6101 17.8794 18.5331 18.0347 18.4561C18.1512 18.3791 18.2289 18.3791 18.3065 18.302L18.3842 18.225C18.4619 18.148 18.5395 18.1095 18.6172 18.0324C18.6948 17.9554 18.7725 17.8784 18.8113 17.8014C18.889 17.6473 18.9278 17.4547 18.9666 17.2622C18.9666 17.1851 18.9666 17.0696 18.9666 16.9926C18.9666 16.9926 18.9278 16.9541 18.8501 16.9155Z" fill="#222222"/>
</svg>
